# Blender v2.79 (sub 0) OBJ File: ''
# www.blender.org
mtllib arrow.mtl
o arrow_model_arrow_modelMesh
v 0.000206 0.235206 0.000000
v 0.000206 -0.000000 0.050000
v -0.146794 -0.106794 -0.000000
v 0.000206 0.000000 0.000000
v 0.000206 0.000000 -0.050000
v 0.147206 -0.106794 -0.000000
vt -61.449799 -32.132702
vt 0.031997 9.396380
vt 85.106796 -32.132702
vt -0.065554 0.000000
vt 71.468903 0.000000
vt -0.065554 19.684999
vt -0.065554 -19.684999
vt -71.599998 0.000000
vt -61.513802 32.263802
vt -0.031997 -9.265280
vt 85.042801 32.263802
vt 85.106796 32.132702
vt -61.449799 32.132702
vt 0.031997 -9.396380
vt 0.000000 0.000000
vt 0.000000 -19.684999
vt -92.600700 0.000000
vt 0.000000 19.684999
vt -85.042801 -32.263802
vt 0.031997 9.265280
vt 61.513802 -32.263802
vn -0.4355 0.1872 0.8805
vn -0.5878 0.8090 0.0000
vn 0.5878 -0.8090 -0.0000
vn 0.5878 0.8090 0.0000
vn 0.4355 0.1872 -0.8805
vn 0.4355 -0.1872 0.8805
vn 1.0000 0.0000 0.0000
vn -1.0000 -0.0000 0.0000
vn 0.4355 0.1872 0.8805
usemtl arrow_material
s off
f 3/1/1 2/2/1 1/3/1
f 4/4/2 3/5/2 2/6/2
f 5/7/3 4/4/3 3/5/3
f 4/4/4 6/8/4 5/7/4
f 6/8/4 4/4/4 2/6/4
f 6/9/5 5/10/5 1/11/5
f 1/12/6 3/13/6 5/14/6
f 4/15/7 5/16/7 1/17/7
f 1/17/8 4/15/8 2/18/8
f 1/19/9 2/20/9 6/21/9
