{
  "asset": {
    "version": "2.0",
    "generator": "THREE.GLTFExporter"
  },
  "scenes": [
    {
      "nodes": [
        0
      ],
      "name": "AuxScene"
    }
  ],
  "scene": 0,
  "nodes" : [
      {
          "mesh" : 0,
          "name" : "Pin",
          "rotation" : [
              1.7071067690849304,
              0,
              -0.7071067690849304,
              1.7701955812299275e-07
          ],
          "scale" : [
              0.1,
              0.2007824659347534,
              0.1
          ],
          "translation" : [
              0.9910110235214233,
              0,
              -0.010335814207792282
          ]
      }
  ],
  "bufferViews": [
    {
      "buffer": 0,
      "byteOffset": 0,
      "byteLength": 38880,
      "target": 34962,
      "byteStride": 12
    },
    {
      "buffer": 0,
      "byteOffset": 38880,
      "byteLength": 38880,
      "target": 34962,
      "byteStride": 12
    },
    {
      "buffer": 0,
      "byteOffset": 77760,
      "byteLength": 6480,
      "target": 34963
    }
  ],
  "buffers": [
    {
      "byteLength": 84240,
      "uri": "data:application/octet-stream;base64,"
    }
  ],
  "accessors": [
    {
      "bufferView": 0,
      "componentType": 5126,
      "count": 3240,
      "max": [
        7.4803147315979,
        4.3307085037231445,
        0.3937007784843445
      ],
      "min": [
        -7.4803147315979,
        -4.3307085037231445,
        -0.3937007784843445
      ],
      "type": "VEC3"
    },
    {
      "bufferView": 1,
      "componentType": 5126,
      "count": 3240,
      "max": [
        1,
        0.9914449453353882,
        1
      ],
      "min": [
        -0.9914448857307434,
        -0.9914449453353882,
        -1
      ],
      "type": "VEC3"
    },
    {
      "bufferView": 2,
      "componentType": 5123,
      "count": 3240,
      "max": [
        3239
      ],
      "min": [
        0
      ],
      "type": "SCALAR"
    }
  ],
  "materials": [
    {
      "pbrMetallicRoughness": {
        "baseColorFactor": [
          0.8,
          0.8,
          0.8,
          1
        ],
        "metallicFactor": 0.5,
        "roughnessFactor": 0.5
      }
    }
  ],
  "meshes": [
    {
      "primitives": [
        {
          "mode": 4,
          "attributes": {
            "POSITION": 0,
            "NORMAL": 1
          },
          "indices": 2,
          "material": 0
        }
      ]
    }
  ]
}
